<svg xmlns="http://www.w3.org/2000/svg" enable-background="new 0 0 100 100" viewBox="0 0 100 100" id="click">
  <path d="M91.41,78.68L77.26,64.54l8.49-8.49c0.48-0.48,0.68-1.17,0.54-1.84c-0.15-0.66-0.62-1.21-1.26-1.45L37.66,35.08c-0.74-0.27-1.56-0.09-2.12,0.46c-0.55,0.56-0.73,1.38-0.46,2.12l17.68,47.37c0.24,0.64,0.79,1.11,1.45,1.26c0.66,0.15,1.36-0.06,1.84-0.54l8.49-8.49l14.14,14.15c0.39,0.39,0.9,0.58,1.41,0.58c0.51,0,1.03-0.19,1.42-0.58l9.9-9.9C92.19,80.72,92.19,79.46,91.41,78.68z M80.09,87.16L65.95,73.02c-0.38-0.37-0.88-0.59-1.41-0.59c-0.54,0-1.04,0.22-1.42,0.59l-7.7,7.7L40.36,40.36l40.36,15.06l-7.7,7.7c-0.37,0.38-0.59,0.88-0.59,1.42c0,0.53,0.22,1.03,0.59,1.41l14.14,14.14L80.09,87.16z M36,24V10c0-1.1,0.9-2,2-2s2,0.9,2,2v14c0,1.1-0.9,2-2,2S36,25.1,36,24z M24,40H10c-1.1,0-2-0.9-2-2s0.9-2,2-2h14c1.1,0,2,0.9,2,2S25.1,40,24,40z M46.49,29.51c-0.78-0.78-0.78-2.05,0-2.83l9.9-9.9c0.78-0.78,2.05-0.78,2.83,0c0.78,0.78,0.78,2.05,0,2.83l-9.9,9.9c-0.39,0.39-0.9,0.59-1.41,0.59S46.88,29.91,46.49,29.51z M29.51,46.49c0.78,0.78,0.78,2.05,0,2.83l-9.9,9.9c-0.39,0.39-0.9,0.59-1.41,0.59s-1.02-0.2-1.41-0.59c-0.78-0.78-0.78-2.05,0-2.83l9.9-9.9C27.47,45.7,28.73,45.7,29.51,46.49z M29.51,26.69c0.78,0.78,0.78,2.05,0,2.83c-0.39,0.39-0.9,0.59-1.41,0.59s-1.02-0.2-1.41-0.59l-9.9-9.9c-0.78-0.78-0.78-2.05,0-2.83c0.78-0.78,2.05-0.78,2.83,0L29.51,26.69z"></path>
</svg>
